<svg width="40" height="41" viewBox="0 0 40 41" fill="none" xmlns="http://www.w3.org/2000/svg">
<g id="u:angle-down">
<path id="Vector" d="M28.3332 15.784C28.0209 15.4736 27.5985 15.2993 27.1582 15.2993C26.7179 15.2993 26.2954 15.4736 25.9832 15.784L19.9998 21.684L14.0998 15.784C13.7876 15.4736 13.3651 15.2993 12.9248 15.2993C12.4845 15.2993 12.0621 15.4736 11.7498 15.784C11.5936 15.9389 11.4696 16.1232 11.385 16.3263C11.3004 16.5294 11.2568 16.7473 11.2568 16.9673C11.2568 17.1873 11.3004 17.4052 11.385 17.6083C11.4696 17.8114 11.5936 17.9957 11.7498 18.1506L18.8165 25.2173C18.9714 25.3735 19.1558 25.4975 19.3589 25.5821C19.562 25.6667 19.7798 25.7103 19.9998 25.7103C20.2199 25.7103 20.4377 25.6667 20.6408 25.5821C20.8439 25.4975 21.0282 25.3735 21.1832 25.2173L28.3332 18.1506C28.4894 17.9957 28.6134 17.8114 28.698 17.6083C28.7826 17.4052 28.8262 17.1873 28.8262 16.9673C28.8262 16.7473 28.7826 16.5294 28.698 16.3263C28.6134 16.1232 28.4894 15.9389 28.3332 15.784Z" fill="#333333"/>
</g>
</svg>
